<?xml version="1.0" encoding="UTF-8"?>
<!DOCTYPE svg PUBLIC "-//W3C//DTD SVG 1.1//EN" "http://www.w3.org/Graphics/SVG/1.1/DTD/svg11.dtd">
<svg xmlns="http://www.w3.org/2000/svg" version="1.1" width="103px" height="103px" style="shape-rendering:geometricPrecision; text-rendering:geometricPrecision; image-rendering:optimizeQuality; fill-rule:evenodd; clip-rule:evenodd" xmlns:xlink="http://www.w3.org/1999/xlink">
<g><path style="opacity:0.823" fill="#000000" d="M 51.5,15.5 C 64.8375,15.3334 78.1708,15.5001 91.5,16C 94.9931,17.4781 95.3264,19.4781 92.5,22C 79.5043,22.4999 66.5043,22.6666 53.5,22.5C 46.6634,42.1753 39.33,61.6753 31.5,81C 29.5594,81.7429 27.7261,81.5762 26,80.5C 19.4708,64.5793 13.1375,48.5793 7,32.5C 5.6771,26.8042 7.34376,25.4708 12,28.5C 17.6667,42.5 23.3333,56.5 29,70.5C 35.3333,53.8333 41.6667,37.1667 48,20.5C 48.6972,18.4156 49.8639,16.7489 51.5,15.5 Z"/></g>
<g><path style="opacity:0.824" fill="#000000" d="M 57.5,40.5 C 59.924,40.1924 62.2573,40.5258 64.5,41.5C 67.1367,45.9684 69.97,50.3017 73,54.5C 75.9584,50.0843 78.7917,45.5843 81.5,41C 83.9018,40.1859 86.2351,40.3526 88.5,41.5C 84.6969,47.8014 80.6969,53.968 76.5,60C 80.6254,66.4164 84.6254,72.9164 88.5,79.5C 86.1667,80.8333 83.8333,80.8333 81.5,79.5C 78.8573,74.8679 75.8573,70.5346 72.5,66.5C 69.624,71.086 66.624,75.586 63.5,80C 61.1667,80.6667 58.8333,80.6667 56.5,80C 60.6405,73.5455 64.6405,67.0455 68.5,60.5C 64.8154,53.8226 61.1488,47.1559 57.5,40.5 Z"/></g>
</svg>
