<?xml version="1.0" encoding="UTF-8"?>
<!DOCTYPE svg PUBLIC "-//W3C//DTD SVG 1.1//EN" "http://www.w3.org/Graphics/SVG/1.1/DTD/svg11.dtd">
<svg xmlns="http://www.w3.org/2000/svg" version="1.1" width="92px" height="82px" style="shape-rendering:geometricPrecision; text-rendering:geometricPrecision; image-rendering:optimizeQuality; fill-rule:evenodd; clip-rule:evenodd" xmlns:xlink="http://www.w3.org/1999/xlink">
<g><path style="opacity:0.823" fill="#000000" d="M 47.5,-0.5 C 60.8333,-0.5 74.1667,-0.5 87.5,-0.5C 90.8897,1.17465 91.223,3.34132 88.5,6C 75.5043,6.49989 62.5043,6.66656 49.5,6.5C 42.6634,26.1753 35.33,45.6753 27.5,65C 25.5594,65.7429 23.7261,65.5762 22,64.5C 15.4708,48.5793 9.13746,32.5793 3,16.5C 1.6771,10.8042 3.34376,9.47083 8,12.5C 13.6667,26.5 19.3333,40.5 25,54.5C 31.3333,37.8333 37.6667,21.1667 44,4.5C 44.6972,2.4156 45.8639,0.748938 47.5,-0.5 Z"/></g>
<g><path style="opacity:0.824" fill="#000000" d="M 53.5,24.5 C 55.924,24.1924 58.2573,24.5258 60.5,25.5C 63.1367,29.9684 65.97,34.3017 69,38.5C 71.9584,34.0843 74.7917,29.5843 77.5,25C 79.9018,24.1859 82.2351,24.3526 84.5,25.5C 80.6969,31.8014 76.6969,37.968 72.5,44C 76.6254,50.4164 80.6254,56.9164 84.5,63.5C 82.1667,64.8333 79.8333,64.8333 77.5,63.5C 74.8573,58.8679 71.8573,54.5346 68.5,50.5C 65.624,55.086 62.624,59.586 59.5,64C 57.1667,64.6667 54.8333,64.6667 52.5,64C 56.6405,57.5455 60.6405,51.0455 64.5,44.5C 60.8154,37.8226 57.1488,31.1559 53.5,24.5 Z"/></g>
</svg>
